# xmcd
#
# Track frame offsets: 
#        150
#        17255
#        35035
#        52482
#        80542
#        95912
#        110617
#        120060
#        135750
#        154355
#        167077
#        181537
#        199832
#
# Disc length: 2882 seconds
#
# Revision: 1
# Processed by: cddbd v1.5.2PL0 Copyright (c) Steve Scherf et al.
# Submitted via: ExactAudioCopyFreeDBPlugin 1.0
#
DISCID=a40b400d
DTITLE=Victor Bermon - Arriving At Night
DYEAR=2007
DGENRE=Electronic
TTITLE0=Farewell Lunch For Laura
TTITLE1=We Face Each Other
TTITLE2=Photographs Are Not Memories
TTITLE3=Unprepared
TTITLE4=View Of The Islands
TTITLE5=First Encounters
TTITLE6=Portrait
TTITLE7=Famous Discussion
TTITLE8=Theatre Of Signs
TTITLE9=On The Way Back
TTITLE10=Stacked Notebooks
TTITLE11=Prospect Park
TTITLE12=On This Night
EXTD=YEAR: 2007
EXTT0=
EXTT1=
EXTT2=
EXTT3=
EXTT4=
EXTT5=
EXTT6=
EXTT7=
EXTT8=
EXTT9=
EXTT10=
EXTT11=
EXTT12=
PLAYORDER=
